<svg width="122" height="45" viewBox="0 0 122 45" fill="none" xmlns="http://www.w3.org/2000/svg">
<g clip-path="url(#clip0_111_25)">
<path d="M62.9863 14.905L68.7905 14.5324C68.9229 15.4749 69.1657 16.1763 69.563 16.6805C70.203 17.4695 71.0857 17.8641 72.2554 17.8641C73.1161 17.8641 73.8003 17.6668 74.2638 17.2504C74.7051 16.9216 74.97 16.3955 74.97 15.8475C74.97 15.3215 74.7272 14.8173 74.3079 14.4885C73.8665 14.094 72.8292 13.6995 71.1961 13.3488C68.5257 12.7569 66.6057 11.9678 65.4801 10.9596C64.3546 10.017 63.7145 8.63613 63.7587 7.16755C63.7587 6.15927 64.0677 5.15099 64.6415 4.31806C65.3035 3.37554 66.2084 2.63029 67.2898 2.21383C68.4595 1.70969 70.0926 1.44666 72.1451 1.44666C74.661 1.44666 76.581 1.90696 77.9052 2.84948C79.2294 3.77008 80.0239 5.26059 80.2667 7.29907L74.5286 7.62785C74.3741 6.75109 74.0651 6.11543 73.5575 5.69897C73.0499 5.28251 72.3879 5.08523 71.5271 5.08523C70.8209 5.08523 70.2912 5.23867 69.9381 5.52362C69.6071 5.78665 69.3864 6.18119 69.4085 6.61957C69.4085 6.94836 69.585 7.25523 69.8499 7.4525C70.1368 7.71553 70.8209 7.95664 71.9023 8.17583C74.5727 8.74573 76.4707 9.31563 77.6404 9.90745C78.8101 10.4993 79.6487 11.2226 80.1563 12.0774C80.686 12.9542 80.9508 13.9625 80.9287 14.9927C80.9287 16.2202 80.5756 17.4476 79.8694 18.4778C79.1411 19.5519 78.1259 20.3848 76.9342 20.8889C75.6762 21.4369 74.0872 21.7219 72.1892 21.7219C68.8347 21.7219 66.5174 21.0862 65.2153 19.793C63.9132 18.4997 63.1407 16.8777 62.9863 14.905ZM1.39038 21.3931V1.79736H11.5644C13.4403 1.79736 14.8969 1.9508 15.89 2.27958C16.8611 2.58645 17.7218 3.22211 18.2956 4.07695C18.9356 5.01948 19.2446 6.11543 19.2225 7.25523C19.2887 9.18411 18.2956 11.0253 16.5962 11.9898C15.9342 12.3624 15.2059 12.6254 14.4555 12.7569C15.0072 12.9104 15.559 13.1734 16.0445 13.4803C16.4197 13.7871 16.7287 14.1378 17.0156 14.5105C17.3466 14.8831 17.6335 15.2996 17.8763 15.7379L20.8336 21.415H13.9038L10.6375 15.3872C10.2182 14.6201 9.86505 14.1159 9.53401 13.8748C9.09262 13.5679 8.56295 13.4145 8.03329 13.4145H7.50362V21.3712H1.39038V21.3931ZM7.50362 9.73209H10.0857C10.6375 9.68825 11.1671 9.60058 11.6968 9.46906C12.0941 9.4033 12.4472 9.18411 12.6899 8.85533C13.2858 8.06624 13.1975 6.94836 12.4692 6.26887C12.072 5.94008 11.2996 5.76473 10.1961 5.76473H7.50362V9.73209ZM0 38.1831L5.80427 37.8105C5.93669 38.753 6.17945 39.4544 6.5767 39.9586C7.19465 40.7477 8.09949 41.1641 9.26918 41.1641C10.1299 41.1641 10.814 40.9669 11.2775 40.5504C11.7189 40.1997 11.9837 39.6956 11.9837 39.1476C11.9837 38.6215 11.741 38.1174 11.3216 37.7886C10.8802 37.394 9.84298 36.9995 8.18777 36.6488C5.51737 36.057 3.59732 35.2679 2.47178 34.2596C1.34624 33.3171 0.706223 31.9362 0.750362 30.4676C0.750362 29.4593 1.05933 28.451 1.63314 27.6181C2.29522 26.6756 3.20007 25.9303 4.28148 25.5139C5.45116 25.0097 7.0843 24.7467 9.13676 24.7467C11.6527 24.7467 13.5727 25.207 14.8969 26.1495C16.2211 27.0921 16.9935 28.5606 17.2363 30.5991L11.4982 30.9279C11.3437 30.0511 11.0347 29.4155 10.5271 28.999C10.0416 28.5826 9.35745 28.3853 8.49674 28.4072C7.79052 28.4072 7.26085 28.5606 6.90774 28.8675C6.55463 29.1305 6.35601 29.5251 6.37808 29.9635C6.37808 30.2922 6.55463 30.5991 6.81946 30.7964C7.10637 31.0594 7.79052 31.3005 8.87193 31.5197C11.5423 32.0896 13.4403 32.6595 14.61 33.2513C15.7797 33.8431 16.6183 34.5665 17.1259 35.4213C17.6556 36.2981 17.9204 37.3064 17.9204 38.3147C17.9204 39.5421 17.5452 40.7477 16.8611 41.7779C16.1328 42.8519 15.1176 43.6848 13.9258 44.189C12.6679 44.737 11.0789 45.0219 9.1809 45.0219C5.82634 45.0219 3.50905 44.3863 2.20695 43.093C0.904848 41.7779 0.176556 40.1559 0 38.1831Z" fill="black"/>
<path d="M29.3524 36.6488L34.6932 38.2489C34.4063 39.586 33.8104 40.8573 32.9939 41.9752C32.2435 42.9615 31.2504 43.7287 30.1248 44.2328C28.9772 44.737 27.5206 45 25.7551 45C23.6143 45 21.8488 44.6931 20.5025 44.0794C19.1342 43.4657 17.9645 42.3697 16.9714 40.8134C15.9783 39.2572 15.4928 37.2625 15.4928 34.8295C15.4928 31.5855 16.3535 29.0867 18.097 27.3551C19.8405 25.6235 22.2902 24.7467 25.4682 24.7467C27.962 24.7467 29.9041 25.2508 31.3386 26.2372C32.7511 27.2455 33.8104 28.7798 34.5166 30.8402L29.1317 32.0239C28.9993 31.5636 28.8007 31.1033 28.5358 30.7087C28.2048 30.2484 27.7855 29.8977 27.2779 29.6347C26.7703 29.3716 26.1965 29.262 25.6227 29.262C24.2323 29.262 23.1729 29.81 22.4446 30.9279C21.8929 31.7389 21.606 33.0321 21.606 34.7857C21.606 36.9557 21.9371 38.4462 22.5991 39.2572C23.2612 40.0682 24.1881 40.4627 25.402 40.4627C26.5716 40.4627 27.4544 40.1339 28.0503 39.4983C28.6462 38.8188 29.0876 37.8763 29.3524 36.6488ZM41.8216 25.0755H47.9128V31.9362H54.5778V25.0755H60.7131V44.6712H54.5778V36.7365H47.9128V44.6712H41.8216V25.0755Z" fill="black"/>
<path d="M59.8745 34.8734C59.8745 31.6732 60.7793 29.1744 62.5669 27.399C64.3546 25.6235 66.8705 24.7249 70.0705 24.7249C73.3589 24.7249 75.8748 25.6016 77.6624 27.3552C79.4501 29.1087 80.3328 31.5636 80.3328 34.72C80.3328 37.0215 79.9356 38.8846 79.1632 40.3532C78.4128 41.7999 77.2431 42.9835 75.8086 43.7726C74.33 44.5836 72.4982 45.0001 70.3133 45.0001C68.0843 45.0001 66.2525 44.6494 64.7959 43.9479C63.2952 43.2027 62.0593 42.041 61.2428 40.6162C60.3379 39.0819 59.8745 37.1749 59.8745 34.8734ZM65.9656 34.8953C65.9656 36.8681 66.3408 38.2928 67.0691 39.1696C67.7974 40.0244 68.8126 40.4628 70.0926 40.4628C71.3947 40.4628 72.4099 40.0463 73.1382 39.1915C73.8665 38.3366 74.2196 36.8242 74.2196 34.6323C74.2196 32.7911 73.8444 31.4321 73.0941 30.5992C72.3437 29.7443 71.3285 29.3279 70.0485 29.3279C68.9229 29.284 67.8415 29.7663 67.0912 30.6211C66.3408 31.4759 65.9656 32.9007 65.9656 34.8953ZM86.5785 34.8734C86.5785 31.6732 87.4834 29.1744 89.271 27.399C91.0586 25.6235 93.5745 24.7249 96.7746 24.7249C100.063 24.7249 102.601 25.6016 104.366 27.3552C106.132 29.1087 107.037 31.5636 107.037 34.72C107.037 37.0215 106.64 38.8846 105.867 40.3532C105.117 41.7999 103.947 42.9835 102.513 43.7726C101.034 44.5836 99.2022 45.0001 97.0174 45.0001C94.7883 45.0001 92.9566 44.6494 91.5 43.9479C89.9993 43.2027 88.7634 42.041 87.9468 40.6162C87.042 39.0819 86.5785 37.1749 86.5785 34.8734ZM92.6697 34.8953C92.6697 36.8681 93.0449 38.2928 93.7731 39.1696C94.5014 40.0244 95.5166 40.4628 96.7967 40.4628C98.0988 40.4628 99.114 40.0463 99.8423 39.1915C100.571 38.3366 100.924 36.8242 100.924 34.6323C100.924 32.7911 100.548 31.4321 99.7981 30.5992C99.0478 29.7443 98.0326 29.3279 96.7525 29.3279C95.627 29.284 94.5235 29.7663 93.7952 30.6211C93.0449 31.4759 92.6697 32.9007 92.6697 34.8953Z" fill="black"/>
<path d="M106.397 25.0754H112.488V39.8489H122V44.6712H106.375V25.0754H106.397Z" fill="black"/>
<path d="M99.6831 23.9447C105.816 19.3548 107.707 11.5742 103.907 6.56629C100.107 1.55835 92.0554 1.21944 85.9229 5.8093C79.7904 10.3992 77.8993 18.1797 81.6991 23.1877C85.4989 28.1956 93.5506 28.5345 99.6831 23.9447Z" fill="white"/>
<mask id="mask0_111_25" style="mask-type:luminance" maskUnits="userSpaceOnUse" x="79" y="2" width="27" height="26">
<path d="M99.6831 23.9445C105.816 19.3547 107.707 11.5741 103.907 6.56617C100.107 1.55823 92.0554 1.21931 85.9229 5.80918C79.7904 10.399 77.8993 18.1796 81.6991 23.1876C85.4989 28.1955 93.5506 28.5344 99.6831 23.9445Z" fill="white"/>
</mask>
<g mask="url(#mask0_111_25)">
<path d="M66.0594 12.3932L97.7496 -11.3253L119.678 17.5758L87.9881 41.2942L66.0594 12.3932Z" fill="white"/>
<mask id="mask1_111_25" style="mask-type:luminance" maskUnits="userSpaceOnUse" x="66" y="-12" width="54" height="54">
<path d="M66.0594 12.3932L97.7496 -11.3253L119.678 17.5758L87.9881 41.2942L66.0594 12.3932Z" fill="white"/>
</mask>
<g mask="url(#mask1_111_25)">
<path d="M99.6831 23.9445C105.816 19.3547 107.707 11.5741 103.907 6.56617C100.107 1.55823 92.0554 1.21931 85.9229 5.80918C79.7904 10.399 77.8993 18.1796 81.6991 23.1876C85.4989 28.1955 93.5506 28.5344 99.6831 23.9445Z" fill="white"/>
<mask id="mask2_111_25" style="mask-type:luminance" maskUnits="userSpaceOnUse" x="79" y="2" width="27" height="26">
<path d="M99.6831 23.9445C105.816 19.3547 107.707 11.5741 103.907 6.56617C100.107 1.55823 92.0554 1.21931 85.9229 5.80918C79.7904 10.399 77.8993 18.1796 81.6991 23.1876C85.4989 28.1955 93.5506 28.5344 99.6831 23.9445Z" fill="white"/>
</mask>
<g mask="url(#mask2_111_25)">
<path d="M74.884 14.323L97.0745 -2.28481L110.848 15.8683L88.6572 32.4761L74.884 14.323Z" fill="white"/>
<mask id="mask3_111_25" style="mask-type:luminance" maskUnits="userSpaceOnUse" x="74" y="-3" width="37" height="36">
<path d="M74.884 14.3229L97.0745 -2.28494L110.848 15.8682L88.6572 32.476L74.884 14.3229Z" fill="white"/>
</mask>
<g mask="url(#mask3_111_25)">
<path d="M99.6831 23.9444C105.816 19.3546 107.707 11.574 103.907 6.56605C100.107 1.55811 92.0554 1.21919 85.9229 5.80906C79.7904 10.3989 77.8993 18.1795 81.6991 23.1874C85.4989 28.1954 93.5506 28.5343 99.6831 23.9444Z" fill="white" stroke="black" stroke-width="4" stroke-miterlimit="10"/>
</g>
<mask id="mask4_111_25" style="mask-type:luminance" maskUnits="userSpaceOnUse" x="78" y="-2" width="30" height="34">
<path d="M78.0462 25.2069L85.6847 -1.30229L107.704 4.98097L100.066 31.4902L78.0462 25.2069Z" fill="white"/>
</mask>
<g mask="url(#mask4_111_25)">
<path d="M74.884 14.3066L97.0585 -2.28483L110.848 15.8846L88.6732 32.4761L74.884 14.3066Z" stroke="black" stroke-width="4" stroke-miterlimit="10"/>
</g>
<path d="M99.6831 23.9445C105.816 19.3547 107.707 11.5741 103.907 6.56617C100.107 1.55823 92.0554 1.21931 85.9229 5.80918C79.7904 10.399 77.8993 18.1796 81.6991 23.1876C85.4989 28.1955 93.5506 28.5344 99.6831 23.9445Z" stroke="black" stroke-width="4" stroke-miterlimit="10"/>
<path d="M74.884 14.323L97.0745 -2.28481L110.848 15.8683L88.6572 32.4761L74.884 14.323Z" fill="white"/>
<mask id="mask5_111_25" style="mask-type:luminance" maskUnits="userSpaceOnUse" x="74" y="-3" width="37" height="36">
<path d="M74.884 14.3229L97.0745 -2.28494L110.848 15.8682L88.6572 32.476L74.884 14.3229Z" fill="white"/>
</mask>
<g mask="url(#mask5_111_25)">
<path d="M99.6831 23.9444C105.816 19.3546 107.707 11.574 103.907 6.56605C100.107 1.55811 92.0554 1.21919 85.9229 5.80906C79.7904 10.3989 77.8993 18.1795 81.6991 23.1874C85.4989 28.1954 93.5506 28.5343 99.6831 23.9444Z" fill="white" stroke="black" stroke-width="4" stroke-miterlimit="10"/>
</g>
<mask id="mask6_111_25" style="mask-type:luminance" maskUnits="userSpaceOnUse" x="78" y="-2" width="30" height="34">
<path d="M78.0462 25.2069L85.6847 -1.30229L107.704 4.98097L100.066 31.4902L78.0462 25.2069Z" fill="white"/>
</mask>
<g mask="url(#mask6_111_25)">
<path d="M74.884 14.3066L97.0585 -2.28483L110.848 15.8846L88.6732 32.4761L74.884 14.3066Z" stroke="black" stroke-width="4" stroke-miterlimit="10"/>
</g>
<path d="M66.0594 12.3932L97.7496 -11.3253L119.678 17.5758L87.9881 41.2942L66.0594 12.3932Z" stroke="black" stroke-width="4" stroke-miterlimit="10"/>
</g>
<path d="M99.6831 23.9445C105.816 19.3547 107.707 11.5741 103.907 6.56617C100.107 1.55823 92.0554 1.21931 85.9229 5.80918C79.7904 10.399 77.8993 18.1796 81.6991 23.1876C85.4989 28.1955 93.5506 28.5344 99.6831 23.9445Z" stroke="black" stroke-width="4" stroke-miterlimit="10"/>
<path d="M86.6006 13.4364L88.8075 11.902L91.5221 15.7379C91.9855 16.3516 92.3387 17.0092 92.6035 17.7325C92.758 18.2805 92.7138 18.8723 92.4931 19.3984C92.2062 20.056 91.7428 20.6039 91.1248 20.9985C90.3965 21.5026 89.7786 21.7876 89.2489 21.8753C88.7413 21.9629 88.2117 21.8753 87.7261 21.6561C87.1965 21.393 86.733 21.0204 86.3799 20.5382L88.2779 18.7847C88.4324 19.0258 88.631 19.245 88.8517 19.4203C89.0062 19.5299 89.1827 19.5957 89.3813 19.5957C89.5358 19.5957 89.6903 19.5299 89.8007 19.4422C90.0214 19.3107 90.1758 19.0477 90.1538 18.7847C90.0876 18.412 89.9331 18.0394 89.6903 17.7545L86.6006 13.4364ZM93.2214 15.8694L95.2298 14.2912C95.4504 14.5543 95.7374 14.7515 96.0463 14.8611C96.4877 14.9926 96.9512 14.905 97.3264 14.62C97.5912 14.4447 97.8119 14.2036 97.9002 13.8967C98.0326 13.5021 97.8119 13.0638 97.4146 12.9322C97.3484 12.9103 97.2822 12.8884 97.216 12.8884C96.9512 12.8665 96.4877 12.9761 95.8036 13.261C94.678 13.7213 93.7952 13.8967 93.1332 13.8309C92.4931 13.7652 91.8973 13.4364 91.5442 12.8884C91.2793 12.5158 91.1469 12.0774 91.1248 11.639C91.1248 11.1349 91.2572 10.6307 91.5442 10.2143C91.9635 9.62246 92.4711 9.11832 93.089 8.72377C94.0159 8.08812 94.8325 7.78125 95.5387 7.78125C96.2449 7.78125 96.907 8.11004 97.525 8.78953L95.5387 10.3458C95.1415 9.84165 94.3911 9.73205 93.8835 10.1266L93.8173 10.1924C93.5966 10.3239 93.4421 10.5211 93.3539 10.7623C93.2876 10.9376 93.3318 11.1349 93.4421 11.2883C93.5304 11.3979 93.6628 11.4856 93.8173 11.4856C93.9939 11.5075 94.3028 11.4198 94.7442 11.2226C95.8477 10.7623 96.6863 10.4992 97.2601 10.4115C97.7457 10.3239 98.2533 10.3677 98.7167 10.565C99.136 10.7403 99.4892 11.0472 99.7319 11.4198C100.041 11.8582 100.217 12.3843 100.24 12.9322C100.262 13.5021 100.107 14.0501 99.7981 14.5323C99.4009 15.1242 98.8933 15.6283 98.2974 16.0228C97.0836 16.8558 96.0905 17.2065 95.296 17.075C94.4353 16.9435 93.729 16.5051 93.2214 15.8694Z" fill="black"/>
</g>
</g>
</g>
<defs>
<clipPath id="clip0_111_25">
<rect width="122" height="45" fill="white"/>
</clipPath>
</defs>
</svg>
